<?xml version="1.0" encoding="utf-8"?>
<svg xmlns="http://www.w3.org/2000/svg" fill="none" height="608" width="1056">
  <g clip-path="url(#a)">
    <path d="M0 0h1056v608H0z" fill="url(#b)"/>
    <path d="M792.979-101.967c104.863 86.23 135.929 257.077 11.244 342.537-107.424 73.63-72.845 224.156 421.697 140.091 71.49-10.07 364.16-55.503-73.28-29.916 0 0-399.806 31.605-253.165-91.288C1260.64-22.771 1232.35-212.07 1038.46-246.355c-202.616-35.84-501.765-66.351-245.481 144.388" fill="url(#c)"/>
    <path d="M650.999 487.5c-143.375 84.076-356.052 17.626-553-52.499-179.326-63.851-370.502 56.879-147 241H733.5C905.541 498.698 875.056 356.119 650.999 487.5" fill="url(#d)"/>
    <path d="M66.856-191.844c-125.132-20.633-332.028 32.819-279.832 320.153 70.8 389.797 875.844 145.192 885.475 37.691 18.5-206.5-601-37.691-459-185C333.01-169.06 202.606-169.495 66.856-191.844" fill="url(#e)"/>
    <ellipse cx="527.5" cy="712.5" fill="url(#f)" rx="938.5" ry="308.5"/>
    <path d="M681.748 63.272 371.471 161.58l3.473 10.964 310.278-98.307z" fill="#0069FF"/>
    <path d="m505 119.272-133.529 42.307 3.473 10.964L505 131.337zm178.418 79.96c48.536 0 87.882-4.18 87.882-9.336s-39.346-9.336-87.882-9.336c-48.535 0-87.881 4.179-87.881 9.336 0 5.156 39.346 9.336 87.881 9.336" fill="#000C2A"/>
    <path d="M683.418 199.232c-48.507 0-87.881-4.195-87.881-9.336 0 48.507 39.374 87.881 87.881 87.881 48.508 0 87.882-39.374 87.882-87.881 0 5.141-39.374 9.336-87.882 9.336" fill="#0069FF"/>
    <path d="M691 277.5c39.817-2.38 74.007-41.162 76-81.5-7.19 1.404-18.065 2.563-31.177 3.356-3.081 33.381-32.085 69.223-63.323 77.644 5.5 1 12.728.845 18.5.5" fill="#C6E3FF"/>
    <path d="M767.049 196.574c-11.307 3.797-44.447 6.514-83.631 6.514-47.086 0-85.445-3.991-87.678-8.93a80 80 0 0 0-.081-1.435l-.078-.026a90 90 0 0 1-.044-2.801v.018-.086c0 5.142 39.374 9.336 87.881 9.336 48.508 0 87.882-4.194 87.882-9.336l-.001.085.001-.017c0 48.507-39.374 87.881-87.882 87.881q-1.002 0-2-.023c45.35-1.014 82.264-36.444 85.631-81.18" fill="#fff"/>
    <path d="m683.417 74.818 80.102 118.867c3.112-.745 5.344-1.556 6.562-2.368L683.417 62.641l-86.663 128.676c1.218.812 3.45 1.623 6.562 2.368z" fill="#0069FF"/>
    <path d="M684.65 87.747c11.225 0 20.324-9.1 20.324-20.324s-9.099-20.324-20.324-20.324c-11.224 0-20.324 9.099-20.324 20.324 0 11.224 9.1 20.324 20.324 20.324" fill="#FFF7B5"/>
    <path d="M669.312 54.086c3.57-3.106 8.234-3.987 13.337-3.987 11.225 0 19.324 8.099 19.324 19.324 0 5.103-.881 9.767-3.987 13.336 4.281-3.726 6.987-9.215 6.987-15.336 0-11.225-9.099-20.324-20.324-20.324-6.121 0-11.61 2.706-15.337 6.987" fill="#fff"/>
    <path d="M373.163 297.531c48.535 0 87.881-4.18 87.881-9.336s-39.346-9.337-87.881-9.337-87.882 4.18-87.882 9.337c0 5.156 39.346 9.336 87.882 9.336" fill="#000C2A"/>
    <path d="M373.163 297.531c-48.508 0-87.882-4.194-87.882-9.336 0 48.508 39.374 87.882 87.882 87.882 48.507 0 87.881-39.374 87.881-87.882 0 5.142-39.374 9.336-87.881 9.336" fill="#1433D6"/>
    <path d="M378.127 376c44.261-2.602 79.589-37.897 81.873-82-7.993 1.535-20.015 2.802-34.657 3.67-3.425 36.563-29.119 68.189-63.843 77.33 5.507 1.468 11 1 16.627 1" fill="#0069FF"/>
    <path d="M456.793 294.874c-11.307 3.798-44.447 6.515-83.63 6.515v.068c-47.087 0-85.446-3.992-87.679-8.931a87 87 0 0 0-.085-1.503l-.074-.025a90 90 0 0 1-.044-2.802q0 .279.154.555c2.708 4.88 40.976 8.714 87.728 8.714 48.507 0 87.881-4.194 87.881-9.336v.084-.017c0 48.508-39.374 87.882-87.881 87.882a89 89 0 0 1-2-.023c45.35-1.014 82.263-36.445 85.63-81.181" fill="#fff"/>
    <path d="m373.164 173.118 80.101 118.866c3.112-.744 5.344-1.556 6.562-2.368L373.164 160.94 286.5 289.684c1.218.812 3.45 1.624 6.562 2.368l80.102-118.866z" fill="#1433D6"/>
    <path d="M373.016 189.367c11.224 0 20.324-9.099 20.324-20.324s-9.1-20.324-20.324-20.324-20.325 9.099-20.325 20.324 9.1 20.324 20.325 20.324" fill="#FFF075"/>
    <path d="M357.68 155.707a20.25 20.25 0 0 1 13.336-4.987c11.225 0 20.324 9.099 20.324 20.324 0 5.103-1.88 9.767-4.987 13.337 4.281-3.727 6.987-9.216 6.987-15.337 0-11.225-9.099-20.324-20.324-20.324-6.121 0-11.61 2.706-15.336 6.987" fill="#fff"/>
    <path d="M528.357 501.322c94.679 0 171.432-8.178 171.432-18.267s-76.753-18.266-171.432-18.266c-94.68 0-171.433 8.178-171.433 18.266 0 10.089 76.753 18.267 171.433 18.267" fill="#FFF7B5"/>
    <path d="M528.357 501.254c-94.647 0-171.433-8.186-171.433-18.267v33.962c0 10.08 76.718 18.266 171.433 18.266s171.432-8.186 171.432-18.266v-33.962c0 10.081-76.718 18.267-171.432 18.267" fill="#000C2A"/>
    <path d="M554.803 480.91c-1.407 5.433-26.98 13.165-54.304 6.09-18.146-4.699-32.636-14.858-39.911-20.728 18.04-.828 37.681-1.336 58.29-1.456 21.649 5.933 37.131 11.438 35.925 16.094" fill="#000C2A"/>
    <path d="M542.38 87.747h-33.874l-13.549 392.048c0 4.24 13.663 7.659 30.486 7.659 16.824 0 30.486-3.419 30.486-7.659z" fill="#1433D6"/>
    <path d="m543.488 119.78-11.959-11.959a8.747 8.747 0 0 0-12.37 0l-11.751 11.75-2.642 76.457 14.393 14.393a8.747 8.747 0 0 0 12.37 0l14.588-14.588z" fill="#000C2A"/>
    <path d="m576.644 112.287-45.115-45.115a8.747 8.747 0 0 0-12.37 0l-45.115 45.115a8.75 8.75 0 0 0 0 12.371l45.115 45.115a8.747 8.747 0 0 0 12.37 0l45.115-45.115a8.75 8.75 0 0 0 0-12.371" fill="#FFE50B"/>
    <path d="m531.53 67.172 45.115 45.115a8.75 8.75 0 0 1 0 12.371l-26.78 26.779 21.78-25.779a8.75 8.75 0 0 0 0-12.371L530.53 71.172a8.747 8.747 0 0 0-12.37 0L492.602 93.73l26.558-26.558a8.747 8.747 0 0 1 12.37 0" fill="#fff"/>
    <path d="m536.858 106.471-.724-.724c-6.2-6.2-16.252-6.2-22.451 0l-.725.724c-6.199 6.2-6.199 16.252 0 22.451l.725.724c6.199 6.2 16.251 6.2 22.451 0l.724-.724c6.2-6.199 6.2-16.251 0-22.451" fill="#fff"/>
    <path d="M744.254 516.551c1.782-3.764-7.525-11.904-20.788-18.183-13.263-6.278-25.458-8.317-27.24-4.553-1.782 3.763 7.526 11.904 20.788 18.182 13.263 6.279 25.459 8.317 27.24 4.554" fill="#000C2A"/>
    <path d="M756.881 505.574c-4.18-4.824-12.857-10.231-23.598-14.221-10.747-3.991-20.85-5.551-27.163-4.628l-4.432-1.644-1.949 5.253c-2.064 5.551 9.616 15.011 26.081 21.124s31.486 6.57 33.544 1.019l1.949-5.254-4.433-1.644z" fill="url(#g)"/>
    <path clip-rule="evenodd" d="M704.027 499.12a24 24 0 0 1-1.701-1.739l-.005-.007 2.457-6.613 2.066.77zm6.952 5.186a57 57 0 0 1-1.894-1.229l.001-.006 2.514-6.774 2.067.77zm30.98 11.457a54 54 0 0 0 2.24.299l2.644-7.124-2.066-.77zm-9.297-2.062q-1.045-.3-2.113-.631l.001-.006 2.742-7.389 2.066.77zm-13.479-5.004c.663.304 1.331.608 2.014.902l2.743-7.395-2.066-.77-2.696 7.257zm33.965 7.378c-.755.114-1.572.194-2.437.235l3.176-8.554 2.066.77z" fill="#1433D6" fill-rule="evenodd"/>
    <path d="M761.31 507.224c2.061-5.551-9.616-15.007-26.081-21.122-16.466-6.114-31.484-6.571-33.546-1.02s9.616 15.007 26.082 21.121c16.465 6.115 31.484 6.572 33.545 1.021" fill="url(#h)"/>
    <path d="M753.134 503.212c1.474-3.97-6.873-10.732-18.643-15.103-11.771-4.371-22.507-4.695-23.982-.725s6.873 10.732 18.643 15.102 22.507 4.696 23.982.726" fill="#FFE50B"/>
    <path d="M747.872 500.952c1.064-2.866-4.959-7.746-13.453-10.9s-16.243-3.388-17.307-.523c-1.064 2.866 4.959 7.746 13.453 10.9s16.243 3.388 17.307.523" fill="url(#i)"/>
    <path d="M751.863 494.401c-.132-.088-.269-.178-.4-.272-.082-.056-.16-.105-.242-.162-2.53-1.655-5.45-3.277-8.661-4.795l-27.672 8.551a84 84 0 0 0 8.441 4.571l29.557-7.184a51 51 0 0 0-1.017-.708z" fill="url(#j)"/>
    <path d="M761.541 506.012c.184-5.639-10.981-14.223-26.309-19.913-10.432-3.873-20.279-5.47-26.619-4.716 0 0 38.748 2.631 52.928 24.629" fill="#fff"/>
    <path d="M749.86 506.905c1.782-3.764-7.526-11.904-20.788-18.183-13.263-6.278-25.459-8.317-27.241-4.553-1.781 3.763 7.526 11.904 20.789 18.182 13.262 6.279 25.458 8.317 27.24 4.554" fill="#000C2A"/>
    <path d="M741.102 495.779c-2.642-4.396-8.761-9.878-16.715-14.527-7.955-4.643-15.739-7.279-20.868-7.417l-3.279-1.919-2.274 3.891c-2.402 4.114 5.538 13.212 17.728 20.331 12.19 7.12 24.019 9.558 26.42 5.445l2.274-3.891-3.279-1.918z" fill="url(#k)"/>
    <path clip-rule="evenodd" d="M700.146 483.362a21 21 0 0 1-1.106-1.612l.001-.006 2.858-4.897 1.528.895zm4.786 5.069a43 43 0 0 1-1.327-1.234l2.928-5.02 1.528.895zm22.948 13.354c.588.2 1.168.38 1.731.545l3.079-5.275-1.528-.896zm-7.078-2.923a53 53 0 0 1-1.589-.789l.001-.006 3.196-5.469 1.528.895zm-9.979-5.821c.481.334.969.663 1.469.995l3.197-5.476-1.529-.895-3.136 5.37zm25.873 10.538a21 21 0 0 1-1.96-.15l3.696-6.332 1.528.896z" fill="#1433D6" fill-rule="evenodd"/>
    <path d="M744.379 497.753c2.4-4.11-5.536-13.212-17.726-20.33s-24.017-9.556-26.417-5.446 5.536 13.212 17.726 20.33 24.017 9.556 26.417 5.446" fill="url(#l)"/>
    <path d="M738.468 493.439c1.715-2.938-3.959-9.445-12.675-14.535s-17.173-6.833-18.888-3.896 3.96 9.446 12.675 14.535 17.173 6.834 18.888 3.896" fill="#FFE50B"/>
    <path d="M734.62 490.92c1.239-2.121-2.857-6.818-9.148-10.492-6.291-3.673-12.395-4.932-13.634-2.811-1.238 2.121 2.858 6.818 9.149 10.492 6.291 3.673 12.395 4.932 13.633 2.811" fill="url(#m)"/>
    <path d="M738.673 486.242c-.096-.089-.184-.182-.285-.272-.058-.052-.11-.109-.168-.162-1.775-1.66-3.862-3.347-6.193-4.994l-23.09 2.943a68 68 0 0 0 6.049 4.788l24.393-1.597q-.345-.35-.707-.7z" fill="url(#n)"/>
    <path d="M744.734 496.768c.926-4.44-6.729-12.779-18.074-19.407-7.721-4.508-15.298-7.141-20.424-7.412 0 0 30.315 7.439 38.504 26.82z" fill="#fff"/>
    <path d="M851.124 545.061c2.174-9.866-19.815-23.099-49.115-29.555-29.3-6.457-54.814-3.693-56.988 6.173s19.815 23.099 49.115 29.555c29.299 6.457 54.814 3.693 56.988-6.173" fill="#000C2A"/>
    <path d="M907.899 534.41c.035-4.941-14.675-9.05-32.855-9.178s-32.946 3.774-32.981 8.715 14.675 9.051 32.855 9.179 32.946-3.774 32.981-8.716m-132.312 12.91c.875-8.994-21.512-18.531-50.002-21.302s-52.294 2.273-53.169 11.267 21.512 18.532 50.001 21.303c28.49 2.771 52.295-2.274 53.17-11.268" fill="#000C2A"/>
    <path d="M678.062 541.88c.836-7.994-16.137-16.318-37.908-18.594s-40.099 2.359-40.934 10.352 16.136 16.318 37.908 18.594 40.098-2.359 40.934-10.352" fill="#000C2A"/>
    <path d="M773.068 537.717c-7.265-5.65-21.047-10.887-37.367-13.526-16.321-2.639-31.047-2.027-39.729 1.043L689.999 523l-2.058 9.121c-1.372 8.431 17.809 18.551 42.799 22.6 25.006 4.051 46.388.5 47.745-7.95l1.299-7.972-6.736-1.068z" fill="url(#o)"/>
    <path clip-rule="evenodd" d="m767.369 554.643-.019.005.017.002zm0 0a32 32 0 0 0 3.368-1.01l1.851-11.459-3.13-.496zm-70.889-11.264a39 39 0 0 1-2.892-1.993l1.625-10.03 3.129.496zm11.281 5.379a78 78 0 0 1-3.016-1.21l1.666-10.285 3.129.496zm47.034 7.544.017-.001v.004zm.017-.001 1.862-11.523 3.129.496-1.751 10.829c-1.053.076-2.139.147-3.24.198m-16.888-.599-.017-.002zm0 0c1.057.115 2.116.214 3.162.293l1.781-11.017-3.129-.496zm-17.323-3.025-.002.017zm0 0 1.778-10.999 3.13.496-1.813 11.22a176 176 0 0 1-3.095-.717" fill="#1433D6" fill-rule="evenodd"/>
    <path d="M780.145 538.892c1.365-8.431-17.797-18.548-42.799-22.596-25.003-4.049-46.378-.496-47.743 7.936-1.365 8.431 17.796 18.547 42.799 22.596 25.002 4.048 46.378.495 47.743-7.936" fill="url(#p)"/>
    <path d="M767.447 535.507c.976-6.028-12.725-13.261-30.601-16.156-17.877-2.894-33.159-.354-34.135 5.674-.976 6.027 12.724 13.26 30.6 16.155 17.877 2.894 33.16.354 34.136-5.673" fill="#FFE50B"/>
    <path d="M759.389 533.778c.704-4.347-9.183-9.564-22.084-11.653s-23.928-.258-24.632 4.089 9.183 9.564 22.083 11.653c12.901 2.089 23.929.258 24.633-4.089" fill="url(#q)"/>
    <path d="M762.83 523.313a13 13 0 0 1-.653-.278l-.392-.167c-4.047-1.635-8.626-3.111-13.605-4.371l-36.762 19.839c4.013 1.526 8.466 2.911 13.229 4.102l39.817-18.43a43 43 0 0 0-1.648-.715z" fill="url(#r)"/>
    <path d="M779.783 537.037c-1.306-8.036-19.509-17.059-42.784-20.818-15.844-2.564-30.22-2.071-38.989.776 0 0 55.564-7.111 81.773 20.042" fill="#fff"/>
    <path d="M774.92 530.106c19.367 1.377 35.499-3.586 36.032-11.085s-14.734-14.696-34.101-16.073-35.498 3.586-36.031 11.085 14.734 14.696 34.1 16.073m-37.466-10.544c.709-4.378-10.383-9.816-24.775-12.147s-26.634-.67-27.343 3.708 10.384 9.816 24.776 12.147 26.633.67 27.342-3.708" fill="#000C2A"/>
    <path d="M743.183 512.608c-4.467-3.485-12.956-6.7-22.993-8.318-10.05-1.62-19.106-1.253-24.454.65l-4.142-.657-.789 4.895c-.837 5.194 10.954 11.415 26.339 13.908 15.385 2.492 28.549.306 29.385-4.888l.779-4.91-4.127-.667z" fill="url(#s)"/>
    <path clip-rule="evenodd" d="m739.677 523.02-.014.004.013.002zm0 0a23 23 0 0 0 2.075-.626l1.145-7.055-1.927-.305zm-43.622-6.949a23 23 0 0 1-1.783-1.217l1.006-6.182 1.928.306zm6.946 3.344a61 61 0 0 1-1.858-.748l1.03-6.325 1.927.305zm28.944 4.629a38 38 0 0 0 1.995-.125l1.083-6.663-1.927-.306zm-8.448-.192-1.946-.188 1.121-6.898 1.927.305zm-12.599-2.037a45 45 0 0 0 1.906.436l1.122-6.911-1.927-.306z" fill="#1433D6" fill-rule="evenodd"/>
    <path d="M747.596 513.353c.84-5.191-10.955-11.419-26.346-13.911s-28.55-.305-29.39 4.886c-.841 5.19 10.955 11.418 26.346 13.91s28.55.305 29.39-4.885" fill="url(#t)"/>
    <path d="M739.783 511.257c.601-3.71-7.829-8.161-18.828-9.941s-20.402-.218-21.002 3.492c-.601 3.709 7.829 8.16 18.827 9.941s20.402.217 21.003-3.492" fill="#FFE50B"/>
    <path d="M734.828 510.198c.433-2.674-5.656-5.885-13.599-7.171s-14.735-.161-15.168 2.513 5.656 5.886 13.6 7.172c7.943 1.286 14.734.16 15.167-2.514" fill="url(#u)"/>
    <path d="M736.898 503.747c-.137-.061-.263-.108-.4-.17-.074-.038-.163-.066-.237-.104-2.484-1.008-5.315-1.924-8.372-2.689l-22.628 12.207c2.468.938 5.204 1.786 8.143 2.532l24.493-11.337a57 57 0 0 0-1.012-.441z" fill="url(#v)"/>
    <path d="M747.324 512.182c-.805-4.947-12.007-10.501-26.339-12.813-9.751-1.572-18.595-1.279-23.988.483 0 0 34.191-4.379 50.325 12.343z" fill="#fff"/>
    <path d="M786.517 529.559c7.107-3.262 19.54-4.9 33.554-3.91 14.02.998 26.088 4.376 32.663 8.611l5.78.413-.489 6.855c-.514 7.245-18.342 11.876-39.823 10.351s-38.476-8.636-37.962-15.88l.489-6.855 5.781.413z" fill="url(#w)"/>
    <path clip-rule="evenodd" d="M848.79 549.169c.994-.338 1.926-.7 2.781-1.082l.006.008.61-8.629-2.696-.194zm-10.391 2.268a71 71 0 0 0 2.733-.413l.007.001.629-8.837-2.696-.194zm-40.393-2.934a58 58 0 0 1-2.649-.806l.657-9.299 2.696.194zm11.421 2.409q1.322.2 2.681.374l.684-9.646-2.696-.194zm17.586 1.256a95 95 0 0 1-2.709-.014l.683-9.645 2.696.194zm-41.656-8.987c.779.51 1.654 1.014 2.598 1.498l.006.009.792-11.159-2.695-.194z" fill="#1433D6" fill-rule="evenodd"/>
    <path d="M818.601 545.112c21.477 1.528 39.305-3.105 39.82-10.348.515-7.242-16.478-14.351-37.955-15.879s-39.305 3.106-39.82 10.349c-.515 7.242 16.478 14.351 37.955 15.878" fill="url(#x)"/>
    <path d="M818.938 540.258c15.357 1.092 28.105-2.222 28.473-7.402.369-5.18-11.782-10.264-27.139-11.356-15.358-1.092-28.106 2.222-28.474 7.402s11.782 10.264 27.14 11.356" fill="#FFE50B"/>
    <path d="M818.404 537.234c11.082.788 20.28-1.602 20.546-5.338s-8.502-7.404-19.584-8.192-20.281 1.602-20.546 5.338c-.266 3.737 8.502 7.404 19.584 8.192" fill="url(#y)"/>
    <path d="M797.782 519.638q.293-.054.584-.097c.12-.017.232-.036.351-.053 3.669-.563 7.745-.894 12.1-.962l26.551 23.577c-3.618.476-7.563.762-11.742.822l-29.346-23.007c.489-.098.992-.186 1.494-.274z" fill="url(#z)"/>
    <path d="M781.096 527.687c2.653-6.388 19.471-10.304 39.46-8.885 13.609.969 25.413 4.174 32.109 8.239 0 0-44.586-16.72-71.569.646" fill="#fff"/>
    <path d="M672.885 494.936c1.239-10.026-20.07-20.912-47.596-24.313s-56.549 4.35-57.788 14.376c-.754 6.103 14.499 15.002 24.821 15.002 5.678 4 18.406 9.668 29.178 10.999 27.525 3.402 50.146-6.037 51.385-16.064" fill="#000C2A"/>
    <path d="M601.334 483.672c6.995-3.494 19.368-5.541 33.407-5.014 14.045.535 26.218 3.514 32.928 7.53l5.791.222-.262 6.868c-.275 7.257-17.941 12.473-39.461 11.658s-38.739-7.363-38.464-14.62l.263-6.868 5.791.223z" fill="url(#A)"/>
    <path clip-rule="evenodd" d="M664.221 501.219a33 33 0 0 0 2.743-1.174l.007.008.325-8.644-2.701-.105zm-10.311 2.608a70 70 0 0 0 2.719-.502l.007.001.336-8.853-2.7-.106zm-40.467-1.6a58 58 0 0 1-2.675-.719l.351-9.315 2.7.105zm11.493 2.031q1.328.156 2.693.285l.365-9.662-2.701-.105zm17.619.676c-.89.034-1.794.066-2.709.075l.365-9.662 2.701.105zm-41.93-7.609a29 29 0 0 0 2.646 1.412l.006.008.424-11.179-2.7-.105z" fill="#1433D6" fill-rule="evenodd"/>
    <path d="M633.916 498.159c21.515.819 39.181-4.399 39.457-11.655s-16.942-13.8-38.458-14.619-39.182 4.4-39.458 11.655c-.276 7.256 16.943 13.801 38.459 14.619" fill="url(#B)"/>
    <path d="M634.093 493.296c15.385.586 28.017-3.147 28.214-8.336.198-5.189-12.114-9.87-27.499-10.456-15.385-.585-28.017 3.148-28.214 8.337-.198 5.189 12.114 9.87 27.499 10.455" fill="#FFE50B"/>
    <path d="M633.457 490.292c11.102.422 20.217-2.27 20.359-6.013s-8.742-7.119-19.844-7.542c-11.101-.422-20.216 2.27-20.359 6.013-.142 3.743 8.742 7.119 19.844 7.542" fill="url(#C)"/>
    <path d="M612.27 473.385q.291-.063.581-.116c.119-.022.23-.044.349-.065 3.648-.684 7.711-1.149 12.062-1.36l27.313 22.689c-3.6.595-7.534 1.011-11.709 1.208l-30.088-22.027c.486-.114.985-.218 1.484-.323z" fill="url(#D)"/>
    <path d="M595.858 481.979c2.441-6.472 19.12-10.94 39.145-10.181 13.634.52 25.537 3.334 32.364 7.176 0 0-45.113-15.24-71.509 3.005" fill="#fff"/>
    <path d="M754.563 510.177c5.715-2.622 15.707-3.939 26.973-3.138 11.267.802 20.969 3.514 26.253 6.925l4.649.329-.391 5.507c-.414 5.824-14.744 9.544-32.008 8.317s-30.922-6.943-30.51-12.761l.392-5.507 4.649.329z" fill="url(#E)"/>
    <path clip-rule="evenodd" d="M804.608 525.933a27 27 0 0 0 2.237-.87l.494-6.934-2.163-.154zm-8.357 1.816a58 58 0 0 0 2.202-.328l-.007-.001.507-7.108-2.163-.153zm-32.46-2.353a62 62 0 0 1-2.128-.644l.529-7.475 2.162.153zm9.183 1.944c.712.106 1.425.204 2.154.298l.551-7.749-2.163-.153zm14.128 1.008c-.715.003-1.444.004-2.178-.01l.551-7.749 2.162.153-.542 7.604zm-33.479-7.232a24 24 0 0 0 2.091 1.207l.634-8.968-2.162-.153z" fill="#1433D6" fill-rule="evenodd"/>
    <path d="M780.322 522.7c17.265 1.228 31.597-2.497 32.011-8.319s-13.246-11.538-30.511-12.765-31.597 2.497-32.011 8.319 13.246 11.538 30.511 12.765" fill="url(#F)"/>
    <path d="M780.604 518.779c12.343.878 22.588-1.783 22.884-5.944s-9.47-8.245-21.813-9.123c-12.343-.877-22.589 1.784-22.885 5.944-.295 4.161 9.471 8.245 21.814 9.123" fill="#FFE50B"/>
    <path d="M780.173 516.361c8.908.633 16.303-1.287 16.516-4.29.214-3.002-6.835-5.95-15.743-6.583-8.908-.634-16.303 1.287-16.516 4.289-.214 3.003 6.835 5.95 15.743 6.584" fill="url(#G)"/>
    <path d="m763.62 502.202.472-.078.283-.043c2.944-.452 6.23-.718 9.731-.775l21.342 18.953a84 84 0 0 1-9.435.662l-23.588-18.493c.391-.077.797-.151 1.202-.225z" fill="url(#H)"/>
    <path d="M750.203 508.67c2.133-5.136 15.651-8.286 31.719-7.146 10.935.779 20.426 3.355 25.805 6.62 0 0-35.834-13.436-57.523.519z" fill="#fff"/>
    <path d="M907.899 531.41c.035-4.941-14.675-9.05-32.855-9.178s-32.946 3.774-32.981 8.715 14.675 9.051 32.855 9.179 32.946-3.774 32.981-8.716" fill="#000C2A"/>
    <path d="M905.127 529.125c-4.457-4.294-13.649-8.923-24.997-12.135-11.347-3.212-21.994-4.189-28.623-3.031l-4.682-1.322-1.983 4.98c-2.093 5.265 10.303 13.524 27.696 18.437 17.394 4.921 33.195 4.638 35.288-.627l1.983-4.98z" fill="url(#I)"/>
    <path clip-rule="evenodd" d="M849.461 525.599a25 25 0 0 1-1.812-1.54l-.008-.007 2.499-6.269 2.184.617zm7.379 4.5a52 52 0 0 1-2.008-1.053l2.556-6.427 2.185.617zm32.719 9.212h.003l-.003.007zm.003 0 2.867-7.2 2.184.617-2.694 6.758a74 74 0 0 1-2.357-.175m-12.025-1.966-.003-.001v.008zm0 0q1.123.261 2.234.489l2.739-6.877-2.184-.618zm-12.015-3.538c.696.251 1.407.502 2.132.745l2.791-7.013-2.184-.617-2.739 6.877zm35.822 5.277c-.794.143-1.656.252-2.563.335l3.229-8.108 2.184.618z" fill="#1433D6" fill-rule="evenodd"/>
    <path d="M909.875 529.963c1.473-5.439-11.483-13.679-28.938-18.406s-32.798-4.148-34.271 1.291c-1.472 5.438 11.484 13.679 28.938 18.405s32.799 4.148 34.271-1.29" fill="url(#J)"/>
    <path d="M901.204 526.704c1.053-3.889-8.211-9.782-20.693-13.162-12.481-3.379-23.454-2.966-24.507.923s8.212 9.782 20.694 13.162c12.481 3.379 23.453 2.966 24.506-.923" fill="#FFE50B"/>
    <path d="M895.614 524.911c.76-2.806-5.926-7.057-14.933-9.496s-16.925-2.141-17.684.664 5.926 7.057 14.933 9.496 16.925 2.141 17.684-.664" fill="url(#K)"/>
    <path d="M899.704 518.963c-.144-.081-.28-.155-.431-.236-.083-.047-.174-.094-.257-.141-2.688-1.422-5.771-2.795-9.171-4.057l-28.988 9.254c2.677 1.349 5.675 2.653 8.94 3.862l30.988-8.068a44 44 0 0 0-1.081-.614" fill="url(#L)"/>
    <path d="M910.032 529.318c.124-5.261-11.732-12.724-27.918-17.302-11.019-3.118-21.397-4.145-28.056-3.14 0 0 40.776.632 55.974 20.442" fill="#fff"/>
    <path d="M674.323 537.945c-5.324-3.157-15.334-5.552-27.115-6.074-11.782-.522-22.369.972-28.555 3.62l-4.86-.211-.787 5.301c-.829 5.605 13.132 10.799 31.188 11.588 18.059.797 33.373-3.106 34.202-8.71l.787-5.303z" fill="url(#M)"/>
    <path clip-rule="evenodd" d="M619.336 547.291a25 25 0 0 1-2.117-1.083l-.009-.005.992-6.676 2.268.099zm8.214 2.684a52 52 0 0 1-2.196-.563l1.013-6.843 2.268.1zm33.96 1.457.003-.001-.001.008zm.003-.001 1.138-7.666 2.268.099-1.072 7.196c-.754.135-1.536.254-2.334.371m-12.155.847h-.004l.003.007zm0 0c.77-.002 1.529-.016 2.286-.037l1.088-7.322-2.268-.1zm-12.507-.686c.736.085 1.485.166 2.247.235l1.107-7.466-2.268-.099-1.088 7.323zm36.077-3.087c-.74.322-1.553.626-2.417.915l1.281-8.632 2.268.099z" fill="#1433D6" fill-rule="evenodd"/>
    <path d="M679.138 537.67c.185-5.632-14.317-10.678-32.39-11.272-18.074-.593-32.875 3.491-33.06 9.123s14.317 10.677 32.39 11.271c18.074.593 32.875-3.491 33.06-9.122" fill="url(#N)"/>
    <path d="M669.948 536.489c.132-4.028-10.238-7.636-23.162-8.061s-23.508 2.497-23.64 6.524 10.237 7.636 23.162 8.06 23.508-2.496 23.64-6.523" fill="#FFE50B"/>
    <path d="M664.099 536.026c.095-2.905-7.388-5.508-16.714-5.814-9.327-.306-16.965 1.8-17.06 4.705s7.388 5.508 16.714 5.814c9.327.306 16.965-1.8 17.06-4.705" fill="url(#O)"/>
    <path d="M666.714 529.298a29 29 0 0 0-.473-.13c-.092-.027-.191-.052-.283-.079-2.943-.767-6.258-1.396-9.857-1.843l-26.09 15.66c2.915.699 6.133 1.28 9.588 1.707l28.309-14.965a44 44 0 0 0-1.194-.35" fill="url(#P)"/>
    <path d="M679.141 537.006c-1.087-5.149-14.339-9.691-31.144-10.431-11.441-.506-21.777.877-28.027 3.383 0 0 39.831-8.744 59.171 7.048" fill="#fff"/>
    <path d="M278.414 508.99c22.984-2.035 40.917-11.566 40.056-21.286s-20.19-15.95-43.173-13.915c-22.984 2.036-40.917 11.566-40.056 21.287s20.19 15.95 43.173 13.914" fill="#000C2A"/>
    <path d="M250.741 488.567c6.616-4.125 18.687-7.308 32.665-8.095 13.977-.78 26.327 1.036 33.361 4.394l5.765-.322.382 6.836c.403 7.222-16.632 14.051-38.049 15.253s-39.105-3.677-39.515-10.901l-.382-6.836 5.765-.322z" fill="url(#Q)"/>
    <path clip-rule="evenodd" d="M314.74 500.09a33 33 0 0 0 2.612-1.416l.007.001-.485-8.607-2.685.151zm-9.986 3.552a70 70 0 0 0 2.653-.754l-.498-8.815-2.685.151zm-40.272 2.194a77 77 0 0 1-2.718-.459l-.518-9.268 2.685-.151.558 9.879zm11.748.953c.833.014 1.679.028 2.533.024l-.537-9.61-2.686.151.529 9.432zm17.372-.988q-1.318.179-2.677.33l-.536-9.618 2.685-.151zm-42.304-3.629c.846.409 1.769.798 2.761 1.158l-.626-11.128-2.685.151z" fill="#1433D6" fill-rule="evenodd"/>
    <path d="M284.6 499.757c21.418-1.202 38.452-8.029 38.047-15.25-.405-7.22-18.096-12.099-39.515-10.897-21.418 1.202-38.452 8.029-38.047 15.25.405 7.22 18.096 12.099 39.515 10.897" fill="url(#R)"/>
    <path d="M284.319 494.911c15.311-.859 27.488-5.742 27.198-10.907-.29-5.164-12.937-8.654-28.247-7.795s-27.488 5.742-27.198 10.906 12.936 8.655 28.247 7.796" fill="#FFE50B"/>
    <path d="M283.414 491.999c11.049-.62 19.836-4.145 19.627-7.872s-9.336-6.247-20.385-5.627-19.836 4.144-19.627 7.872 9.336 6.247 20.385 5.627" fill="url(#S)"/>
    <path d="M260.619 477.347c.192-.059.375-.111.567-.17.115-.031.23-.069.344-.1 3.556-1.018 7.541-1.859 11.841-2.479l29.211 19.952c-3.515.926-7.383 1.707-11.501 2.296l-31.898-19.032c.469-.159.952-.309 1.443-.459z" fill="url(#T)"/>
    <path d="M245.141 487.403c1.813-6.646 17.945-12.642 37.874-13.76 13.568-.761 25.638.926 32.767 4.096 0 0-46.167-10.896-70.641 9.664" fill="#fff"/>
    <path d="M271.053 493.559c16.1-.903 28.929-5.605 28.654-10.503s-13.549-8.134-29.649-7.231-28.929 5.606-28.654 10.503 13.549 8.135 29.649 7.231" fill="#000C2A"/>
    <path d="M235.5 478.098c5.317-3.316 15.024-5.874 26.256-6.502s21.164.83 26.818 3.531l4.635-.262.31 5.497c.325 5.802-13.368 11.293-30.581 12.256-17.213.962-31.431-2.956-31.755-8.766l-.31-5.497 4.635-.263z" fill="url(#U)"/>
    <path clip-rule="evenodd" d="M286.941 487.361a24 24 0 0 0 2.099-1.137l.001-.007-.387-6.918-2.158.124zm-8.026 2.856q1.099-.294 2.133-.607l-.397-7.082-2.158.124zm-32.376 1.769-.007-.001-.444-7.944-2.158.124.42 7.454q1.062.203 2.182.366zm9.311.756c.715.017 1.438.028 2.17.025l-.006-.008-.433-7.729-2.158.124zm14.097-.787c-.706.095-1.426.188-2.152.266l-.433-7.729 2.158-.124zm-33.998-2.924a24 24 0 0 0 2.219.933l.001-.008-.505-8.941-2.158.124z" fill="#1433D6" fill-rule="evenodd"/>
    <path d="M262.731 487.085c17.213-.966 30.903-6.454 30.577-12.258s-14.543-9.726-31.756-8.76-30.903 6.454-30.578 12.258c.326 5.803 14.544 9.725 31.757 8.76" fill="url(#V)"/>
    <path d="M262.517 483.182c12.307-.691 22.096-4.613 21.863-8.762-.232-4.148-10.399-6.951-22.706-6.261-12.308.691-22.097 4.614-21.864 8.762s10.399 6.952 22.707 6.261" fill="#FFE50B"/>
    <path d="M261.782 480.847c8.884-.498 15.949-3.33 15.781-6.325s-7.506-5.019-16.39-4.52c-8.883.498-15.949 3.33-15.781 6.325s7.506 5.019 16.39 4.52" fill="url(#W)"/>
    <path d="M243.444 469.076c.153-.048.298-.09.459-.138l.275-.079c2.853-.818 6.066-1.499 9.515-1.989l23.477 16.036a82 82 0 0 1-9.246 1.843l-25.64-15.299c.377-.125.768-.249 1.16-.374" fill="url(#X)"/>
    <path d="M230.999 477.159c1.46-5.342 14.424-10.157 30.441-11.06 10.905-.615 20.604.742 26.336 3.29 0 0-37.106-8.756-56.777 7.77" fill="#fff"/>
    <path d="M333.425 541.08c.042-9.706 22.863-17.475 50.972-17.353 28.108.123 50.861 8.091 50.818 17.797S412.352 559 384.243 558.878c-28.108-.123-50.861-8.091-50.818-17.798" fill="#000C2A"/>
    <path d="M273.494 527.362c.205-6.672 18.974-11.51 41.921-10.805 22.947.704 41.383 6.684 41.178 13.356-.204 6.672-18.973 11.51-41.92 10.805-22.947-.704-41.383-6.684-41.179-13.356" fill="#000C2A"/>
    <path d="M350.599 531.677c8.014-4.418 22.364-7.415 38.802-7.466 16.439-.052 30.806 2.842 38.854 7.209h6.781l.034 8.014c.035 8.493-20.377 15.445-45.549 15.531-25.189.086-45.635-6.73-45.652-15.24l-.034-8.031h6.781z" fill="url(#Y)"/>
    <path clip-rule="evenodd" d="m353.56 549.188.018.007h-.018zm0 0a32 32 0 0 1-3.15-1.517l-.034-11.542h3.151zm71.372-.027a39 39 0 0 0 3.15-1.507l-.034-10.103h-3.151zm-11.917 3.527a78 78 0 0 0 3.151-.719l-.035-10.36h-3.15zm-47.365.086-.017-.003v.003zm-.017-.003-.034-11.607h-3.15l.034 10.908c1.022.238 2.077.477 3.15.699m16.679 2.04.017.001zm0 0a95 95 0 0 1-3.151-.205l-.034-11.096h3.15zm17.483-.273v.017zm0 0-.034-11.08h-3.151l.035 11.302c1.061-.068 2.106-.137 3.15-.222" fill="#1433D6" fill-rule="evenodd"/>
    <path d="M343.465 531.73c-.028-8.493 20.365-15.445 45.549-15.529s45.624 6.734 45.652 15.226-20.365 15.445-45.55 15.528-45.623-6.733-45.651-15.225" fill="url(#Z)"/>
    <path d="M356.462 530.381c-.02-6.071 14.56-11.042 32.567-11.102 18.006-.059 32.619 4.814 32.64 10.886.02 6.071-14.561 11.042-32.567 11.101-18.007.06-32.62-4.813-32.64-10.885" fill="#FFE50B"/>
    <path d="M362.895 519.125c.223-.051.445-.102.685-.171l.411-.103c4.229-.976 8.955-1.712 14.041-2.174l33.015 25.206c-4.178.873-8.767 1.541-13.631 1.969l-36.233-24.298c.565-.155 1.13-.309 1.729-.446z" fill="url(#aa)"/>
    <path d="M344.108 529.965c2.535-7.689 21.816-13.717 45.258-13.785 15.96-.051 30.001 2.671 38.169 6.832 0 0-53.46-15.634-83.427 6.953" fill="#fff"/>
    <path d="M349.194 521.864c6.438-3.562 17.98-5.959 31.182-5.994 13.22-.034 24.761 2.278 31.234 5.805h5.445l.017 6.439c.017 6.832-16.37 12.415-36.61 12.483s-36.68-5.411-36.697-12.243v-6.456l5.429-.017z" fill="url(#ab)"/>
    <path clip-rule="evenodd" d="m351.575 535.931.017.008h-.017zm0 0a30 30 0 0 1-2.534-1.225l-.034-9.281h2.534zm57.363-.043a29 29 0 0 0 2.535-1.199l-.035-8.134h-2.534zm-9.588 2.876a80 80 0 0 0 2.535-.583l-.035-8.322h-2.534zm-38.066.052a50 50 0 0 1-2.534-.565l-.035-8.767h2.535zm10.874 1.472c.839.052 1.678.103 2.534.154l-.034-9.075h-2.534zm16.574-.051c-.838.068-1.677.137-2.533.171l-.034-9.093h2.534z" fill="#1433D6" fill-rule="evenodd"/>
    <path d="M343.385 521.922c-.022-6.828 16.373-12.418 36.621-12.485s36.68 5.414 36.703 12.242-16.373 12.417-36.621 12.485-36.68-5.414-36.703-12.242" fill="url(#ac)"/>
    <path d="M353.832 520.822c-.016-4.879 11.701-8.875 26.17-8.922s26.212 3.869 26.228 8.749-11.7 8.874-26.169 8.922-26.213-3.869-26.229-8.749" fill="#FFE50B"/>
    <path d="M360.403 520.472c-.011-3.518 8.451-6.398 18.901-6.433 10.45-.034 18.931 2.789 18.942 6.307.012 3.518-8.45 6.399-18.9 6.434-10.45.034-18.931-2.79-18.943-6.308" fill="url(#ad)"/>
    <path d="M359.056 511.777c.189-.051.36-.085.548-.137.103-.034.223-.051.326-.085 3.39-.788 7.209-1.387 11.284-1.747l26.542 20.258c-3.356.702-7.038 1.232-10.959 1.592l-29.111-19.521q.669-.18 1.388-.36z" fill="url(#ae)"/>
    <path d="M352 514.016c6.711-2.79 16.918-4.588 28.361-4.619 12.825-.034 24.11 2.14 30.668 5.497 0 0-31.655-9.261-55.859-.394z" fill="#fff"/>
    <path d="M250.998 511.626c4.5-6.125 38.155-6.043 62.855.001s28.453 18.258 26.722 25.333-31.378 9.085-56.077 3.041-40.737-18.523-33.5-28.375" fill="#000C2A"/>
    <path d="M335.591 521.077c-6.471-4.309-18.426-7.853-32.343-9.063-13.924-1.202-26.302.237-33.417 3.372l-5.742-.494-.587 6.808c-.623 7.195 16.165 14.518 37.498 16.365s39.13-2.491 39.753-9.686l.587-6.808-5.742-.494z" fill="url(#af)"/>
    <path clip-rule="evenodd" d="M271.382 530.642a32 32 0 0 1-2.563-1.496l-.007.007.744-8.569 2.678.229zm9.851 3.844a70 70 0 0 1-2.62-.83h-.008l.759-8.777 2.678.229zm40.125 3.407a58 58 0 0 0 2.727-.379l.802-9.235-2.677-.229zm-11.591.588c-.887-.007-1.782-.021-2.692-.05l.831-9.579 2.677.229zm-17.467-1.503c.873.143 1.761.286 2.663.408l.83-9.579-2.677-.229zm42.308-2.342c-.844.379-1.782.737-2.784 1.067l-.007.007.959-11.082 2.677.229z" fill="#1433D6" fill-rule="evenodd"/>
    <path d="M301.659 531.356c-21.33-1.843-38.117-9.169-37.495-16.361s18.416-11.529 39.746-9.686c21.33 1.844 38.117 9.169 37.496 16.362-.622 7.193-18.417 11.529-39.747 9.685" fill="url(#ag)"/>
    <path d="M302.082 526.536c-15.251-1.318-27.255-6.557-26.81-11.701.444-5.145 13.169-8.246 28.421-6.928s27.255 6.557 26.81 11.702c-.444 5.144-13.169 8.246-28.421 6.927" fill="#FFE50B"/>
    <path d="M303.081 523.651c-11.006-.951-19.667-4.731-19.347-8.441s9.503-5.948 20.508-4.996c11.006.951 19.668 4.73 19.347 8.441-.321 3.71-9.502 5.947-20.508 4.996" fill="url(#ah)"/>
    <path d="M326.07 509.58c-.186-.064-.372-.129-.558-.186-.115-.036-.222-.072-.337-.107-3.515-1.124-7.466-2.083-11.733-2.828l-29.745 19.021c3.479 1.031 7.309 1.926 11.404 2.634l32.401-18.026a72 72 0 0 0-1.425-.501z" fill="url(#ai)"/>
    <path d="M339.498 517.048c-4.862-5.517-18.848-10.379-35.665-11.834-13.516-1.167-25.607.143-32.816 3.092 0 0 41.333-8.445 65.981 8.484 0 0 2.266 0 2.5.258" fill="#fff"/>
    <path d="M319.352 517.203c-13.719-1.186-24.542-5.606-24.173-9.872.368-4.266 11.789-6.763 25.509-5.577 13.719 1.186 24.542 5.605 24.174 9.871s-11.79 6.763-25.51 5.578" fill="url(#aj)"/>
    <path d="M359.099 505.293c-5.205-3.465-14.812-6.314-26.001-7.28s-21.14.186-26.86 2.713l-4.617-.401-.473 5.469c-.501 5.785 12.994 11.669 30.139 13.151s31.448-2.004 31.95-7.782l.472-5.469-4.617-.401z" fill="url(#ak)"/>
    <path d="M307.497 512.974a27 27 0 0 1-2.061-1.202l.594-6.887 2.147.186zm7.925 3.086a58 58 0 0 1-2.112-.666h.007l.609-7.059 2.148.187zm32.244 2.742a59 59 0 0 0 2.191-.301l.644-7.423-2.148-.187zm-9.321.48a106 106 0 0 1-2.162-.043l.666-7.696 2.148.187zm-14.031-1.211c.701.115 1.417.23 2.14.33l.666-7.696-2.148-.186-.651 7.552zm34.004-1.889a23 23 0 0 1-2.241.859l.773-8.905 2.148.186z" fill="#1433D6"/>
    <path d="M331.851 513.581c-17.147-1.482-30.642-7.371-30.142-13.154s14.805-9.268 31.951-7.786 30.642 7.371 30.142 13.153c-.5 5.783-14.805 9.269-31.951 7.787" fill="url(#al)"/>
    <path d="M332.187 509.686c-12.258-1.06-21.906-5.269-21.549-9.401s10.584-6.622 22.842-5.563 21.906 5.268 21.549 9.4-10.584 6.623-22.842 5.564" fill="#FFE50B"/>
    <path d="M332.985 507.379c-8.847-.765-15.81-3.802-15.552-6.784s7.639-4.779 16.486-4.015 15.81 3.802 15.552 6.784-7.639 4.779-16.486 4.015" fill="url(#am)"/>
    <path d="m351.446 496.051-.451-.15-.272-.086c-2.821-.902-6.007-1.675-9.436-2.276l-23.91 15.291a83 83 0 0 0 9.163 2.119l26.044-14.49c-.372-.136-.759-.272-1.145-.408z" fill="url(#an)"/>
    <path d="M363.615 504.49c-1.296-5.376-14.081-10.574-30.038-11.955-10.86-.938-20.582.114-26.373 2.484 0 0 37.283-7.617 56.411 9.464z" fill="#fff"/>
    <path d="M181.518 539.701c26.461.828 48.154-6.224 48.452-15.751s-20.912-17.919-47.373-18.747c-26.462-.828-48.155 6.224-48.453 15.751s20.912 17.92 47.374 18.747" fill="#000C2A"/>
    <path d="M158.904 517.269c6.762-3.874 18.948-6.602 32.945-6.862s26.27 2.018 33.177 5.639l5.773-.107.129 6.845c.132 7.231-17.144 13.413-38.589 13.814-21.45.396-38.941-5.142-39.079-12.377l-.129-6.845z" fill="url(#ao)"/>
    <path d="M222.433 531.178q1.442-.625 2.664-1.317l.004-.006-.162-8.616-2.691.049zm-10.111 3.171a78 78 0 0 0 2.679-.652l-.165-8.827-2.691.049zm-40.333.693a71 71 0 0 1-2.698-.56l-.173-9.287 2.691-.049zm11.551 1.381c.886.05 1.783.097 2.691.126l.006.004-.181-9.625-2.691.049zm17.558-.33-.121.011c-.845.079-1.699.159-2.563.217l-.177-9.631 2.691-.049zm-42.135-5.219c.822.445 1.74.865 2.716 1.261l-.002-.01-.207-11.137-2.691.049z" fill="#1433D6"/>
    <path d="M192.081 529.787c21.448-.397 38.727-6.579 38.593-13.81-.133-7.23-17.629-12.77-39.077-12.374s-38.727 6.579-38.593 13.81c.133 7.23 17.629 12.77 39.077 12.374" fill="url(#ap)"/>
    <path d="M191.988 524.932c15.333-.284 27.684-4.706 27.589-9.877s-12.602-9.135-27.935-8.851-27.684 4.705-27.588 9.877c.095 5.171 12.602 9.134 27.934 8.851" fill="#FFE50B"/>
    <path d="M191.192 521.99c11.065-.204 19.978-3.396 19.909-7.128s-9.094-6.593-20.159-6.389c-11.064.205-19.978 3.396-19.909 7.129s9.095 6.593 20.159 6.388" fill="url(#aq)"/>
    <path d="M169.208 506.419q.285-.077.579-.15l.346-.089c3.59-.883 7.609-1.577 11.921-2.035l28.443 21.025c-3.551.795-7.443 1.43-11.581 1.862l-31.17-20.205c.482-.151.969-.281 1.466-.414z" fill="url(#ar)"/>
    <path d="M153.36 515.889c2.057-6.574 18.405-11.958 38.364-12.333 13.59-.253 25.582 1.879 32.589 5.318 0 0-45.721-12.614-70.953 7.015" fill="#fff"/>
    <path d="M329.501 503.5C331 507 344.5 512 364 505.5c6.255-3.782 12.358-8.405 17.668-13.14C429.501 481 424.001 468.5 399.501 471c-3.473-5.744-29.294-4.018-49.039 7.921-19.744 11.939-22.864 20.138-20.961 24.579" fill="#000C2A"/>
    <path d="M338.327 494.13c3.567-6.929 12.308-15.846 23.912-23.678 11.605-7.831 23.143-12.595 30.908-13.314l4.786-3.23 3.831 5.674c4.044 5.996-7.09 20.58-24.867 32.581-17.784 12-35.473 16.867-39.525 10.87l-3.831-5.674z" fill="url(#as)"/>
    <path d="M399.201 471.246a28 28 0 0 0 1.519-2.555v-.007l-4.822-7.142-2.231 1.505zm-6.76 8.16a76 76 0 0 0 1.894-2.004l-4.94-7.317-2.231 1.504zm-33.467 22.519c-.874.36-1.732.69-2.569.999l-5.197-7.7 2.232-1.505zm10.444-5.123c.771-.441 1.549-.889 2.327-1.358h.007l-5.387-7.978-2.232 1.504zm14.554-9.828-.096.076a97 97 0 0 1-2.033 1.576l-5.387-7.986 2.231-1.505zm-38.196 18.539c.932-.073 1.931-.22 2.966-.418l-.008-.008-6.231-9.233-2.232 1.505z" fill="#1433D6"/>
    <path d="M372.976 486.588c17.783-11.999 28.919-26.586 24.874-32.58-4.045-5.995-21.739-1.128-39.522 10.871s-28.918 26.585-24.873 32.58 21.739 1.127 39.521-10.871" fill="url(#at)"/>
    <path d="M370.257 482.564c12.712-8.578 20.671-19.007 17.778-23.295-2.893-4.287-15.543-.81-28.255 7.768s-20.671 19.006-17.778 23.294c2.893 4.287 15.543.81 28.255-7.767" fill="#FFE50B"/>
    <path d="M367.99 480.529c9.174-6.19 14.917-13.717 12.829-16.812-2.088-3.094-11.217-.585-20.391 5.605-9.173 6.189-14.917 13.716-12.829 16.811 2.089 3.095 11.218.585 20.391-5.604" fill="url(#au)"/>
    <path d="M341.072 479.421c.132-.147.264-.294.404-.441l.242-.264c2.532-2.694 5.527-5.461 8.896-8.191l35.304 2.172c-2.547 2.599-5.468 5.248-8.705 7.861h-37.147c.323-.389.661-.763 1.006-1.145z" fill="url(#av)"/>
    <path d="M332.925 495.987c-1.85-6.635 8.939-20.045 25.483-31.216 11.267-7.604 22.489-12.338 30.24-13.263 0 0-45.228 14.284-55.723 44.479" fill="#fff"/>
    <path d="M283.933 355.838s-37.601-3.109-61.783 18.966c0 0 26.165-4.758 7.224 19.313 0 0 53.801-32.749 54.559-38.279m-144.027 39.334c16.379 17.964 51.778 22.719 62.873 23.247-25.889 24.833-71.855 15.322-79.78-8.982 10.567 8.454 26.417 8.982 39.626 10.567-10.039-2.641-17.436-8.982-22.719-24.832" fill="#000C2A"/>
    <path d="M281.207 355.81a112 112 0 0 1 22.525-7.385c8.982-1.914 18.26-2.982 26.494-2.163a7.9 7.9 0 0 1 3.614 1.286 7.88 7.88 0 0 1 3.52 6.554 7.9 7.9 0 0 1-.925 3.722c-4.75 8.83-14.319 22.644-32.057 35.345-24.612-7.172-24.934-26.951-23.171-37.359" fill="url(#aw)"/>
    <path d="M171.106 423.182s33.989-3.348 75.724-43.925a119.4 119.4 0 0 1 34.377-23.445c-.974 5.85-1.305 14.663 2.963 22.539 0 0-35.868 38.285-113.064 44.831" fill="#0069FF"/>
    <path d="M191.559 420.588c60.89-10.401 90.497-40.083 92.46-42.102.207.266.414.533.624.778 2.901 4.886 7.662 9.327 15.26 12.386a49 49 0 0 0 4.397 1.529c-25.006 17.892-66.261 33.585-133.244 30.001a246 246 0 0 0 20.503-2.592" fill="#1433D6"/>
    <path d="M299.952 391.65a49 49 0 0 0 4.397 1.529c-25.006 17.892-66.261 33.585-133.245 30.001a242 242 0 0 0 20.498-2.609c52.031-.614 86.213-13.789 108.35-28.921" fill="#000C2A"/>
    <path d="M285.261 395.173s4.175 29.947-34.513 48.305c0 0 4.378-22.873 20.027-39.89a28.76 28.76 0 0 1 14.486-8.415" fill="#000C2A"/>
    <path d="M337.087 352.112s.635-13.625-29.906-5.852c0 0-23.159 4.56-34.266 13.667.036-.012 46.612-22.049 64.172-7.815" fill="#fff"/>
    <path d="M292.985 362.677c-1.178-2.559.991-6.07 4.842-7.842 3.852-1.772 7.93-1.133 9.107 1.426 1.178 2.559-.99 6.069-4.842 7.841s-7.929 1.134-9.107-1.425" fill="#fff" opacity=".63"/>
    <path d="M831.223 334.338c6.453-.75 16.884-4.268 33.005-14.982 0 0-16.53-4.735-27.034-1.395a23.47 23.47 0 0 0-10.68 7.572 5.36 5.36 0 0 0-.641 6.002 5.37 5.37 0 0 0 5.35 2.803" fill="#000C2A"/>
    <path d="M843.056 331.018c5.616-2.293 12.587-5.957 21.17-11.662 0 0-11.859-3.397-21.871-2.407 9.417.33 15.916 4.152 15.916 4.152-3.5 3-10.121 7.383-15.215 9.917" fill="#fff"/>
    <path d="M808.277 312.868c4.529-4.674 10.382-13.978 16.106-32.467 0 0-15.811 6.775-21.848 15.992a23.43 23.43 0 0 0-3.482 12.618 5.37 5.37 0 0 0 3.297 5.066 5.38 5.38 0 0 0 5.927-1.209" fill="#000C2A"/>
    <path d="M816.801 300.013c2.468-4.989 5.038-11.393 7.583-19.613 0 0-1.762.756-4.335 2.105-2.194 7.404-2.874 13.078-3.248 17.508" fill="#fff"/>
    <path d="M857.87 277.185c18.884-8.987 19.277-43.868 19.277-43.868l-19.839 25.262-11.913-30.986s-6.41 58.579 12.475 49.592" fill="#000C2A"/>
    <path d="M859.298 276.437c17.475-10.02 17.848-43.12 17.848-43.12l-2.496 3.179c-.311 6.282-2.339 29.969-15.352 39.941m-.96-19.17-1.031 1.312-11.913-30.986s-.241 2.199-.492 5.68l12.294 25.552z" fill="#fff"/>
    <path d="M786.45 317.052c48.059-19.394 66.708-46.145 70.026-57.097 4.815 15.004-13.31 65.901-43.941 89.59-53.693 41.526-86.158-8.251-26.085-32.493" fill="url(#ax)"/>
    <path d="m764.383 170.426-2.782-11.567-2.782-11.566.798 11.866.798 11.866a22.2 22.2 0 0 1-4.265 14.672 22.22 22.22 0 0 1-12.724 8.462l-11.566 2.781-11.565 2.781 11.865-.796 11.865-.797a22.22 22.22 0 0 1 14.673 4.266 22.23 22.23 0 0 1 8.462 12.727l2.783 11.566 2.782 11.567-.798-11.866-.798-11.866a22.2 22.2 0 0 1 4.265-14.673 22.23 22.23 0 0 1 12.724-8.462l11.566-2.781 11.565-2.781-11.865.797-11.865.797a22.2 22.2 0 0 1-14.673-4.267 22.24 22.24 0 0 1-8.463-12.726M734.827 142a9.6 9.6 0 0 1-5.244 3.987 9.58 9.58 0 0 1-6.583-.341 9.6 9.6 0 0 1 3.987 5.244 9.58 9.58 0 0 1-.342 6.584 9.62 9.62 0 0 1 5.244-3.987 9.58 9.58 0 0 1 6.583.342 9.62 9.62 0 0 1-3.986-5.245 9.57 9.57 0 0 1 .341-6.584" fill="#fff"/>
    <path d="M1260.15 760.478 973.307-58.197l-14.712-6.41 25.002 705.736z" fill="url(#ay)"/>
    <path d="m908.22 604.716 34.177-673.53-42.116-18.351-187.385 607.932z" fill="url(#az)"/>
    <path d="M702.46-176.211 255.019 322.587 81 247.847 624.913-210z" fill="url(#aA)"/>
    <path d="m492.163 424.588 308.532-557.996-29.674-12.929-389.726 522.231z" fill="url(#aB)"/>
  </g>
  <defs>
    <linearGradient gradientUnits="userSpaceOnUse" id="b" x1="0" x2="673" y1="622.5" y2="-228.5">
      <stop stop-color="#0069FF"/>
      <stop offset="1" stop-color="#FFF075"/>
    </linearGradient>
    <linearGradient gradientUnits="userSpaceOnUse" id="c" x1="941.5" x2="819.5" y1="-96" y2="405">
      <stop stop-color="#C6E3FF"/>
      <stop offset="1" stop-color="#C6E3FF" stop-opacity="0"/>
    </linearGradient>
    <linearGradient gradientUnits="userSpaceOnUse" id="d" x1="170.999" x2="185.499" y1="762.5" y2="391">
      <stop stop-color="#C6E3FF"/>
      <stop offset="1" stop-color="#C6E3FF" stop-opacity="0"/>
    </linearGradient>
    <linearGradient gradientUnits="userSpaceOnUse" id="e" x1="408.597" x2="214.91" y1="470.43" y2="118.358">
      <stop stop-color="#C6E3FF"/>
      <stop offset="1" stop-color="#C6E3FF" stop-opacity="0"/>
    </linearGradient>
    <linearGradient gradientUnits="userSpaceOnUse" id="g" x1="719.235" x2="745.381" y1="496.918" y2="480.126">
      <stop offset=".072" stop-color="#300091"/>
      <stop offset=".215" stop-color="#1433D6"/>
      <stop offset=".717" stop-color="#5FA3FF"/>
      <stop offset=".883" stop-color="#0069FF"/>
      <stop offset="1" stop-color="#1433D6"/>
    </linearGradient>
    <linearGradient gradientUnits="userSpaceOnUse" id="h" x1="724.594" x2="730.254" y1="507.411" y2="480.938">
      <stop stop-color="#F4F9FF"/>
      <stop offset=".219" stop-color="#C6E3FF"/>
      <stop offset=".613" stop-color="#5FA3FF"/>
      <stop offset=".978" stop-color="#0069FF"/>
    </linearGradient>
    <linearGradient gradientUnits="userSpaceOnUse" id="i" x1="728.929" x2="731.85" y1="501.053" y2="487.386">
      <stop stop-color="#F4F9FF"/>
      <stop offset=".219" stop-color="#C6E3FF"/>
      <stop offset=".613" stop-color="#5FA3FF"/>
      <stop offset=".978" stop-color="#0069FF"/>
    </linearGradient>
    <linearGradient gradientUnits="userSpaceOnUse" id="j" x1="738.639" x2="728.642" y1="486.949" y2="507.117">
      <stop offset=".24" stop-color="#fff" stop-opacity=".7"/>
      <stop offset=".88" stop-color="#fff" stop-opacity="0"/>
    </linearGradient>
    <linearGradient gradientUnits="userSpaceOnUse" id="k" x1="715.082" x2="742.191" y1="487.325" y2="480.441">
      <stop offset=".072" stop-color="#300091"/>
      <stop offset=".215" stop-color="#1433D6"/>
      <stop offset=".717" stop-color="#5FA3FF"/>
      <stop offset=".883" stop-color="#0069FF"/>
      <stop offset="1" stop-color="#1433D6"/>
    </linearGradient>
    <linearGradient gradientUnits="userSpaceOnUse" id="l" x1="715.284" x2="723.428" y1="492.824" y2="472.646">
      <stop stop-color="#F4F9FF"/>
      <stop offset=".219" stop-color="#C6E3FF"/>
      <stop offset=".613" stop-color="#5FA3FF"/>
      <stop offset=".978" stop-color="#0069FF"/>
    </linearGradient>
    <linearGradient gradientUnits="userSpaceOnUse" id="m" x1="719.605" x2="707.927" y1="488.376" y2="472.021">
      <stop stop-color="#F4F9FF"/>
      <stop offset=".219" stop-color="#C6E3FF"/>
      <stop offset=".613" stop-color="#5FA3FF"/>
      <stop offset=".978" stop-color="#0069FF"/>
    </linearGradient>
    <linearGradient gradientUnits="userSpaceOnUse" id="n" x1="729.216" x2="718.513" y1="478.503" y2="493.09">
      <stop offset=".24" stop-color="#fff" stop-opacity=".7"/>
      <stop offset=".88" stop-color="#fff" stop-opacity="0"/>
    </linearGradient>
    <linearGradient gradientUnits="userSpaceOnUse" id="o" x1="677.04" x2="761.436" y1="503.306" y2="486.531">
      <stop stop-color="#300091"/>
      <stop offset=".215" stop-color="#1433D6"/>
      <stop offset=".717" stop-color="#5FA3FF"/>
      <stop offset=".883" stop-color="#0069FF"/>
      <stop offset="1" stop-color="#1433D6"/>
    </linearGradient>
    <linearGradient gradientUnits="userSpaceOnUse" id="p" x1="679.288" x2="715.405" y1="537.854" y2="506.391">
      <stop stop-color="#F4F9FF"/>
      <stop offset=".219" stop-color="#C6E3FF"/>
      <stop offset=".613" stop-color="#5FA3FF"/>
      <stop offset=".978" stop-color="#0069FF"/>
    </linearGradient>
    <linearGradient gradientUnits="userSpaceOnUse" id="q" x1="754.074" x2="751.653" y1="541.823" y2="511.678">
      <stop stop-color="#F4F9FF"/>
      <stop offset=".102" stop-color="#C6E3FF"/>
      <stop offset=".593" stop-color="#5FA3FF"/>
      <stop offset=".978" stop-color="#0069FF"/>
    </linearGradient>
    <linearGradient gradientUnits="userSpaceOnUse" id="r" x1="741.947" x2="733.438" y1="516.539" y2="547.869">
      <stop offset=".24" stop-color="#fff" stop-opacity=".7"/>
      <stop offset=".88" stop-color="#fff" stop-opacity="0"/>
    </linearGradient>
    <linearGradient gradientUnits="userSpaceOnUse" id="s" x1="684.101" x2="736.028" y1="491.437" y2="481.126">
      <stop stop-color="#300091"/>
      <stop offset=".215" stop-color="#1433D6"/>
      <stop offset=".717" stop-color="#5FA3FF"/>
      <stop offset=".883" stop-color="#0069FF"/>
      <stop offset="1" stop-color="#1433D6"/>
    </linearGradient>
    <linearGradient gradientUnits="userSpaceOnUse" id="t" x1="718.235" x2="726.4" y1="521.219" y2="498.371">
      <stop stop-color="#F4F9FF"/>
      <stop offset=".219" stop-color="#C6E3FF"/>
      <stop offset=".613" stop-color="#5FA3FF"/>
      <stop offset=".978" stop-color="#0069FF"/>
    </linearGradient>
    <linearGradient gradientUnits="userSpaceOnUse" id="u" x1="702.473" x2="728.6" y1="508.488" y2="508.143">
      <stop stop-color="#F4F9FF"/>
      <stop offset=".219" stop-color="#C6E3FF"/>
      <stop offset=".613" stop-color="#5FA3FF"/>
      <stop offset=".978" stop-color="#0069FF"/>
    </linearGradient>
    <linearGradient gradientUnits="userSpaceOnUse" id="v" x1="724.031" x2="718.806" y1="499.574" y2="518.854">
      <stop offset=".24" stop-color="#fff" stop-opacity=".7"/>
      <stop offset=".88" stop-color="#fff" stop-opacity="0"/>
    </linearGradient>
    <linearGradient gradientUnits="userSpaceOnUse" id="w" x1="770.991" x2="843.329" y1="507.306" y2="493.522">
      <stop stop-color="#300091"/>
      <stop offset=".215" stop-color="#1433D6"/>
      <stop offset=".717" stop-color="#5FA3FF"/>
      <stop offset=".883" stop-color="#0069FF"/>
      <stop offset="1" stop-color="#1433D6"/>
    </linearGradient>
    <linearGradient gradientUnits="userSpaceOnUse" id="x" x1="854.492" x2="770.773" y1="534.425" y2="515.71">
      <stop stop-color="#F4F9FF"/>
      <stop offset=".255" stop-color="#D3E9FF"/>
      <stop offset=".351" stop-color="#C6E3FF"/>
      <stop offset=".711" stop-color="#5FA3FF"/>
      <stop offset=".918" stop-color="#0069FF"/>
    </linearGradient>
    <linearGradient gradientUnits="userSpaceOnUse" id="y" x1="836.923" x2="793.726" y1="531.721" y2="522.063">
      <stop stop-color="#F4F9FF"/>
      <stop offset=".255" stop-color="#D3E9FF"/>
      <stop offset=".351" stop-color="#C6E3FF"/>
      <stop offset=".711" stop-color="#5FA3FF"/>
      <stop offset=".918" stop-color="#0069FF"/>
    </linearGradient>
    <linearGradient gradientUnits="userSpaceOnUse" id="z" x1="816.435" x2="817.361" y1="518.247" y2="545.834">
      <stop offset=".24" stop-color="#fff" stop-opacity=".7"/>
      <stop offset=".88" stop-color="#fff" stop-opacity="0"/>
    </linearGradient>
    <linearGradient gradientUnits="userSpaceOnUse" id="A" x1="585.083" x2="656.927" y1="461.944" y2="445.782">
      <stop stop-color="#300091"/>
      <stop offset=".215" stop-color="#1433D6"/>
      <stop offset=".717" stop-color="#5FA3FF"/>
      <stop offset=".883" stop-color="#0069FF"/>
      <stop offset="1" stop-color="#1433D6"/>
    </linearGradient>
    <linearGradient gradientUnits="userSpaceOnUse" id="B" x1="669.435" x2="585.144" y1="486.294" y2="470.35">
      <stop stop-color="#F4F9FF"/>
      <stop offset=".255" stop-color="#D3E9FF"/>
      <stop offset=".351" stop-color="#C6E3FF"/>
      <stop offset=".711" stop-color="#5FA3FF"/>
      <stop offset=".918" stop-color="#0069FF"/>
    </linearGradient>
    <linearGradient gradientUnits="userSpaceOnUse" id="C" x1="651.784" x2="608.292" y1="484.171" y2="475.943">
      <stop stop-color="#F4F9FF"/>
      <stop offset=".255" stop-color="#D3E9FF"/>
      <stop offset=".351" stop-color="#C6E3FF"/>
      <stop offset=".711" stop-color="#5FA3FF"/>
      <stop offset=".918" stop-color="#0069FF"/>
    </linearGradient>
    <linearGradient gradientUnits="userSpaceOnUse" id="D" x1="630.867" x2="632.702" y1="471.379" y2="498.921">
      <stop offset=".24" stop-color="#fff" stop-opacity=".7"/>
      <stop offset=".88" stop-color="#fff" stop-opacity="0"/>
    </linearGradient>
    <linearGradient gradientUnits="userSpaceOnUse" id="E" x1="742.093" x2="800.231" y1="492.3" y2="481.215">
      <stop stop-color="#300091"/>
      <stop offset=".215" stop-color="#1433D6"/>
      <stop offset=".717" stop-color="#5FA3FF"/>
      <stop offset=".883" stop-color="#0069FF"/>
      <stop offset="1" stop-color="#1433D6"/>
    </linearGradient>
    <linearGradient gradientUnits="userSpaceOnUse" id="F" x1="809.175" x2="741.874" y1="514.108" y2="499.064">
      <stop stop-color="#F4F9FF"/>
      <stop offset=".255" stop-color="#D3E9FF"/>
      <stop offset=".351" stop-color="#C6E3FF"/>
      <stop offset=".711" stop-color="#5FA3FF"/>
      <stop offset=".918" stop-color="#0069FF"/>
    </linearGradient>
    <linearGradient gradientUnits="userSpaceOnUse" id="G" x1="804.424" x2="753.751" y1="513.316" y2="496.689">
      <stop stop-color="#F4F9FF"/>
      <stop offset=".219" stop-color="#C6E3FF"/>
      <stop offset=".759" stop-color="#5FA3FF"/>
      <stop offset=".916" stop-color="#0069FF"/>
    </linearGradient>
    <linearGradient gradientUnits="userSpaceOnUse" id="H" x1="778.608" x2="779.359" y1="501.112" y2="523.281">
      <stop offset=".24" stop-color="#fff" stop-opacity=".7"/>
      <stop offset=".88" stop-color="#fff" stop-opacity="0"/>
    </linearGradient>
    <linearGradient gradientUnits="userSpaceOnUse" id="I" x1="833.021" x2="892.147" y1="502.449" y2="483.05">
      <stop stop-color="#300091"/>
      <stop offset=".215" stop-color="#1433D6"/>
      <stop offset=".717" stop-color="#5FA3FF"/>
      <stop offset=".883" stop-color="#0069FF"/>
      <stop offset="1" stop-color="#1433D6"/>
    </linearGradient>
    <linearGradient gradientUnits="userSpaceOnUse" id="J" x1="900.05" x2="883.001" y1="521.052" y2="549.204">
      <stop stop-color="#F4F9FF"/>
      <stop offset=".255" stop-color="#D3E9FF"/>
      <stop offset=".351" stop-color="#C6E3FF"/>
      <stop offset=".711" stop-color="#5FA3FF"/>
      <stop offset=".918" stop-color="#0069FF"/>
    </linearGradient>
    <linearGradient gradientUnits="userSpaceOnUse" id="K" x1="897.677" x2="880.516" y1="521.172" y2="539.919">
      <stop stop-color="#F4F9FF"/>
      <stop offset=".255" stop-color="#D3E9FF"/>
      <stop offset=".351" stop-color="#C6E3FF"/>
      <stop offset=".711" stop-color="#5FA3FF"/>
      <stop offset=".918" stop-color="#0069FF"/>
    </linearGradient>
    <linearGradient gradientUnits="userSpaceOnUse" id="L" x1="885.252" x2="875.657" y1="511.984" y2="532.904">
      <stop offset=".24" stop-color="#fff" stop-opacity=".7"/>
      <stop offset=".88" stop-color="#fff" stop-opacity="0"/>
    </linearGradient>
    <linearGradient gradientUnits="userSpaceOnUse" id="M" x1="598.019" x2="651.113" y1="528.532" y2="496.079">
      <stop stop-color="#300091"/>
      <stop offset=".215" stop-color="#1433D6"/>
      <stop offset=".717" stop-color="#5FA3FF"/>
      <stop offset=".883" stop-color="#0069FF"/>
      <stop offset="1" stop-color="#1433D6"/>
    </linearGradient>
    <linearGradient gradientUnits="userSpaceOnUse" id="N" x1="676.552" x2="607.287" y1="547.962" y2="513.342">
      <stop stop-color="#F4F9FF"/>
      <stop offset=".219" stop-color="#C6E3FF"/>
      <stop offset=".613" stop-color="#5FA3FF"/>
      <stop offset=".978" stop-color="#0069FF"/>
    </linearGradient>
    <linearGradient gradientUnits="userSpaceOnUse" id="O" x1="645.648" x2="644.303" y1="541.784" y2="528.543">
      <stop stop-color="#F4F9FF"/>
      <stop offset=".219" stop-color="#C6E3FF"/>
      <stop offset=".613" stop-color="#5FA3FF"/>
      <stop offset=".978" stop-color="#0069FF"/>
    </linearGradient>
    <linearGradient gradientUnits="userSpaceOnUse" id="P" x1="651.046" x2="646.51" y1="525.823" y2="548.387">
      <stop offset=".24" stop-color="#fff" stop-opacity=".7"/>
      <stop offset=".88" stop-color="#fff" stop-opacity="0"/>
    </linearGradient>
    <linearGradient gradientUnits="userSpaceOnUse" id="Q" x1="323.604" x2="275.87" y1="487.041" y2="532.927">
      <stop offset=".072" stop-color="#300091"/>
      <stop offset=".215" stop-color="#1433D6"/>
      <stop offset=".717" stop-color="#5FA3FF"/>
      <stop offset=".883" stop-color="#0069FF"/>
      <stop offset="1" stop-color="#1433D6"/>
    </linearGradient>
    <linearGradient gradientUnits="userSpaceOnUse" id="R" x1="281.71" x2="279.168" y1="506.077" y2="482.585">
      <stop stop-color="#F4F9FF"/>
      <stop offset=".207" stop-color="#C6E3FF"/>
      <stop offset=".584" stop-color="#5FA3FF"/>
      <stop offset=".978" stop-color="#0069FF"/>
    </linearGradient>
    <linearGradient gradientUnits="userSpaceOnUse" id="S" x1="309.267" x2="293.031" y1="488.577" y2="501.062">
      <stop stop-color="#F4F9FF"/>
      <stop offset=".2" stop-color="#C6E3FF"/>
      <stop offset=".409" stop-color="#5FA3FF"/>
      <stop offset=".978" stop-color="#0069FF"/>
    </linearGradient>
    <linearGradient gradientUnits="userSpaceOnUse" id="T" x1="278.81" x2="283.207" y1="473.466" y2="500.604">
      <stop offset=".24" stop-color="#fff" stop-opacity=".7"/>
      <stop offset=".88" stop-color="#fff" stop-opacity="0"/>
    </linearGradient>
    <linearGradient gradientUnits="userSpaceOnUse" id="U" x1="294.074" x2="255.718" y1="476.874" y2="513.753">
      <stop offset=".072" stop-color="#300091"/>
      <stop offset=".215" stop-color="#1433D6"/>
      <stop offset=".717" stop-color="#5FA3FF"/>
      <stop offset=".883" stop-color="#0069FF"/>
      <stop offset="1" stop-color="#1433D6"/>
    </linearGradient>
    <linearGradient gradientUnits="userSpaceOnUse" id="V" x1="224.427" x2="252.293" y1="477.846" y2="437.606">
      <stop stop-color="#F4F9FF"/>
      <stop offset=".219" stop-color="#C6E3FF"/>
      <stop offset=".613" stop-color="#5FA3FF"/>
      <stop offset=".978" stop-color="#0069FF"/>
    </linearGradient>
    <linearGradient gradientUnits="userSpaceOnUse" id="W" x1="243.997" x2="253.736" y1="480.935" y2="456.367">
      <stop stop-color="#F4F9FF"/>
      <stop offset=".102" stop-color="#C6E3FF"/>
      <stop offset=".593" stop-color="#5FA3FF"/>
      <stop offset=".978" stop-color="#0069FF"/>
    </linearGradient>
    <linearGradient gradientUnits="userSpaceOnUse" id="X" x1="258.059" x2="261.591" y1="465.96" y2="487.773">
      <stop offset=".24" stop-color="#fff" stop-opacity=".7"/>
      <stop offset=".88" stop-color="#fff" stop-opacity="0"/>
    </linearGradient>
    <linearGradient gradientUnits="userSpaceOnUse" id="Y" x1="343.701" x2="387.147" y1="527.878" y2="586.386">
      <stop offset=".072" stop-color="#300091"/>
      <stop offset=".215" stop-color="#1433D6"/>
      <stop offset=".717" stop-color="#5FA3FF"/>
      <stop offset=".883" stop-color="#0069FF"/>
      <stop offset="1" stop-color="#1433D6"/>
    </linearGradient>
    <linearGradient gradientUnits="userSpaceOnUse" id="Z" x1="427.691" x2="364.664" y1="540.226" y2="499.848">
      <stop stop-color="#F4F9FF"/>
      <stop offset=".102" stop-color="#C6E3FF"/>
      <stop offset=".854" stop-color="#5FA3FF"/>
      <stop offset=".978" stop-color="#0069FF"/>
    </linearGradient>
    <linearGradient gradientUnits="userSpaceOnUse" id="aa" x1="384.458" x2="387.937" y1="515.724" y2="547.817">
      <stop offset=".24" stop-color="#fff" stop-opacity=".7"/>
      <stop offset=".88" stop-color="#fff" stop-opacity="0"/>
    </linearGradient>
    <linearGradient gradientUnits="userSpaceOnUse" id="ab" x1="343.658" x2="378.595" y1="518.819" y2="565.838">
      <stop offset=".072" stop-color="#300091"/>
      <stop offset=".215" stop-color="#1433D6"/>
      <stop offset=".717" stop-color="#5FA3FF"/>
      <stop offset=".883" stop-color="#0069FF"/>
      <stop offset="1" stop-color="#1433D6"/>
    </linearGradient>
    <linearGradient gradientUnits="userSpaceOnUse" id="ac" x1="411.101" x2="360.428" y1="528.753" y2="496.291">
      <stop stop-color="#F4F9FF"/>
      <stop offset=".102" stop-color="#C6E3FF"/>
      <stop offset=".854" stop-color="#5FA3FF"/>
      <stop offset=".978" stop-color="#0069FF"/>
    </linearGradient>
    <linearGradient gradientUnits="userSpaceOnUse" id="ad" x1="384.738" x2="382.509" y1="514.174" y2="529.546">
      <stop stop-color="#F4F9FF"/>
      <stop offset=".102" stop-color="#C6E3FF"/>
      <stop offset=".854" stop-color="#5FA3FF"/>
      <stop offset=".978" stop-color="#0069FF"/>
    </linearGradient>
    <linearGradient gradientUnits="userSpaceOnUse" id="ae" x1="376.409" x2="379.191" y1="509.041" y2="534.832">
      <stop offset=".24" stop-color="#fff" stop-opacity=".7"/>
      <stop offset=".88" stop-color="#fff" stop-opacity="0"/>
    </linearGradient>
    <linearGradient gradientUnits="userSpaceOnUse" id="af" x1="358.844" x2="311.699" y1="520.836" y2="474.09">
      <stop offset=".072" stop-color="#300091"/>
      <stop offset=".215" stop-color="#1433D6"/>
      <stop offset=".717" stop-color="#5FA3FF"/>
      <stop offset=".883" stop-color="#0069FF"/>
      <stop offset="1" stop-color="#1433D6"/>
    </linearGradient>
    <linearGradient gradientUnits="userSpaceOnUse" id="ag" x1="265.414" x2="296.589" y1="511.334" y2="560.315">
      <stop stop-color="#F4F9FF"/>
      <stop offset=".102" stop-color="#C6E3FF"/>
      <stop offset=".854" stop-color="#5FA3FF"/>
      <stop offset=".978" stop-color="#0069FF"/>
    </linearGradient>
    <linearGradient gradientUnits="userSpaceOnUse" id="ah" x1="284.379" x2="300.461" y1="513.322" y2="538.593">
      <stop stop-color="#F4F9FF"/>
      <stop offset=".102" stop-color="#C6E3FF"/>
      <stop offset=".854" stop-color="#5FA3FF"/>
      <stop offset=".978" stop-color="#0069FF"/>
    </linearGradient>
    <linearGradient gradientUnits="userSpaceOnUse" id="ai" x1="307.968" x2="302.765" y1="505.31" y2="532.258">
      <stop offset=".24" stop-color="#fff" stop-opacity=".7"/>
      <stop offset=".88" stop-color="#fff" stop-opacity="0"/>
    </linearGradient>
    <linearGradient gradientUnits="userSpaceOnUse" id="aj" x1="339.839" x2="297.876" y1="518.461" y2="497.875">
      <stop stop-color="#000C2A"/>
      <stop offset=".99" stop-color="#050B24" stop-opacity="0"/>
      <stop offset=".99" stop-color="#000C2A" stop-opacity="0"/>
    </linearGradient>
    <linearGradient gradientUnits="userSpaceOnUse" id="ak" x1="301.043" x2="331.781" y1="500.25" y2="540.65">
      <stop offset=".072" stop-color="#300091"/>
      <stop offset=".215" stop-color="#1433D6"/>
      <stop offset=".717" stop-color="#5FA3FF"/>
      <stop offset=".883" stop-color="#0069FF"/>
      <stop offset="1" stop-color="#1433D6"/>
    </linearGradient>
    <linearGradient gradientUnits="userSpaceOnUse" id="al" x1="364.385" x2="347.67" y1="507.376" y2="470.857">
      <stop stop-color="#F4F9FF"/>
      <stop offset=".173" stop-color="#C6E3FF"/>
      <stop offset=".854" stop-color="#5FA3FF"/>
      <stop offset=".978" stop-color="#0069FF"/>
    </linearGradient>
    <linearGradient gradientUnits="userSpaceOnUse" id="am" x1="355.676" x2="341.362" y1="504.209" y2="477.664">
      <stop stop-color="#F4F9FF"/>
      <stop offset=".102" stop-color="#C6E3FF"/>
      <stop offset=".854" stop-color="#5FA3FF"/>
      <stop offset=".978" stop-color="#0069FF"/>
    </linearGradient>
    <linearGradient gradientUnits="userSpaceOnUse" id="an" x1="336.896" x2="332.707" y1="492.647" y2="514.302">
      <stop offset=".24" stop-color="#fff" stop-opacity=".7"/>
      <stop offset=".88" stop-color="#fff" stop-opacity="0"/>
    </linearGradient>
    <linearGradient gradientUnits="userSpaceOnUse" id="ao" x1="131.501" x2="247.501" y1="525" y2="532">
      <stop offset=".072" stop-color="#300091"/>
      <stop offset=".285" stop-color="#1433D6"/>
      <stop offset=".717" stop-color="#5FA3FF"/>
      <stop offset=".883" stop-color="#0069FF"/>
      <stop offset="1" stop-color="#1433D6"/>
    </linearGradient>
    <linearGradient gradientUnits="userSpaceOnUse" id="ap" x1="251" x2="134.5" y1="508.5" y2="523">
      <stop stop-color="#F4F9FF"/>
      <stop offset=".219" stop-color="#C6E3FF"/>
      <stop offset=".544" stop-color="#5FA3FF"/>
      <stop offset=".755" stop-color="#0069FF"/>
      <stop offset=".968" stop-color="#310192"/>
    </linearGradient>
    <linearGradient gradientUnits="userSpaceOnUse" id="aq" x1="163.247" x2="180.788" y1="516.13" y2="492.14">
      <stop stop-color="#F4F9FF"/>
      <stop offset=".183" stop-color="#C6E3FF"/>
      <stop offset=".561" stop-color="#5FA3FF"/>
      <stop offset=".978" stop-color="#0069FF"/>
    </linearGradient>
    <linearGradient gradientUnits="userSpaceOnUse" id="ar" x1="187.546" x2="190.926" y1="503.277" y2="530.561">
      <stop offset=".24" stop-color="#fff" stop-opacity=".7"/>
      <stop offset=".88" stop-color="#fff" stop-opacity="0"/>
    </linearGradient>
    <linearGradient gradientUnits="userSpaceOnUse" id="as" x1="336.001" x2="403.001" y1="506" y2="458.5">
      <stop offset=".072" stop-color="#300091"/>
      <stop offset=".285" stop-color="#1433D6"/>
      <stop offset=".717" stop-color="#5FA3FF"/>
      <stop offset=".883" stop-color="#0069FF"/>
    </linearGradient>
    <linearGradient gradientUnits="userSpaceOnUse" id="at" x1="402.001" x2="330.501" y1="455.5" y2="505">
      <stop stop-color="#F4F9FF"/>
      <stop offset=".219" stop-color="#C6E3FF"/>
      <stop offset=".419" stop-color="#5FA3FF"/>
      <stop offset=".755" stop-color="#0069FF"/>
      <stop offset=".968" stop-color="#310192"/>
    </linearGradient>
    <linearGradient gradientUnits="userSpaceOnUse" id="au" x1="341.353" x2="343.023" y1="490.811" y2="461.14">
      <stop stop-color="#F4F9FF"/>
      <stop offset=".183" stop-color="#C6E3FF"/>
      <stop offset=".561" stop-color="#5FA3FF"/>
      <stop offset=".978" stop-color="#0069FF"/>
    </linearGradient>
    <linearGradient gradientUnits="userSpaceOnUse" id="av" x1="354.751" x2="372.427" y1="466.81" y2="487.865">
      <stop offset=".24" stop-color="#fff" stop-opacity=".7"/>
      <stop offset=".88" stop-color="#fff" stop-opacity="0"/>
    </linearGradient>
    <linearGradient gradientUnits="userSpaceOnUse" id="aw" x1="185.501" x2="177.644" y1="322" y2="376.924">
      <stop stop-color="#FFF075"/>
      <stop offset=".978" stop-color="#0069FF"/>
    </linearGradient>
    <linearGradient gradientUnits="userSpaceOnUse" id="ax" x1="856.271" x2="844.726" y1="276.601" y2="367.972">
      <stop stop-color="#FFF075"/>
      <stop offset=".978" stop-color="#0069FF"/>
    </linearGradient>
    <linearGradient gradientUnits="userSpaceOnUse" id="ay" x1="679.21" x2="608.126" y1="-3.668" y2="135.737">
      <stop stop-color="#fff" stop-opacity="0"/>
      <stop offset=".48" stop-color="#fff" stop-opacity=".2"/>
      <stop offset="1" stop-color="#fff" stop-opacity="0"/>
    </linearGradient>
    <linearGradient gradientUnits="userSpaceOnUse" id="az" x1="679.21" x2="608.126" y1="-3.668" y2="135.737">
      <stop stop-color="#fff" stop-opacity="0"/>
      <stop offset=".48" stop-color="#fff" stop-opacity=".2"/>
      <stop offset="1" stop-color="#fff" stop-opacity="0"/>
    </linearGradient>
    <linearGradient gradientUnits="userSpaceOnUse" id="aA" x1="679.21" x2="608.126" y1="-3.668" y2="135.737">
      <stop stop-color="#fff" stop-opacity="0"/>
      <stop offset=".48" stop-color="#fff" stop-opacity=".2"/>
      <stop offset="1" stop-color="#fff" stop-opacity="0"/>
    </linearGradient>
    <linearGradient gradientUnits="userSpaceOnUse" id="aB" x1="679.21" x2="608.126" y1="-3.668" y2="135.737">
      <stop stop-color="#fff" stop-opacity="0"/>
      <stop offset=".48" stop-color="#fff" stop-opacity=".2"/>
      <stop offset="1" stop-color="#fff" stop-opacity="0"/>
    </linearGradient>
    <radialGradient cx="0" cy="0" gradientTransform="matrix(-.07967 268.49999 -459.22298 -.13625 528.08 403.997)" gradientUnits="userSpaceOnUse" id="f" r="1">
      <stop stop-color="#0069FF"/>
      <stop offset="1" stop-color="#0069FF" stop-opacity="0"/>
    </radialGradient>
    <clipPath id="a">
      <path d="M0 0h1056v608H0z" fill="#fff"/>
    </clipPath>
  </defs>
</svg>